<svg width="20" height="20" viewBox="0 0 20 20" fill="none" xmlns="http://www.w3.org/2000/svg">
<path d="M10.559 1.8479L17.6424 5.80624C18.0659 6.01798 18.3334 6.45081 18.3334 6.92427V8.12509C18.3334 8.70037 17.867 9.16679 17.2917 9.16679H16.6667V15.8334H17.5C17.9603 15.8334 18.3334 16.2065 18.3334 16.6667C18.3334 17.127 17.9603 17.5 17.5 17.5H2.50002C2.03979 17.5 1.66669 17.127 1.66669 16.6667C1.66669 16.2065 2.03979 15.8334 2.50002 15.8334H3.33335V9.16679H2.70835C2.13305 9.16679 1.66669 8.70037 1.66669 8.12509V6.92427C1.66669 6.49026 1.89147 6.0904 2.25512 5.86368L9.44102 1.8479C9.79294 1.67195 10.2071 1.67195 10.559 1.8479ZM15 9.16679H5.00002V15.8334H7.50002V10.8334H9.16669V15.8334H10.8334V10.8334H12.5V15.8334H15V9.16679ZM10 3.43179L3.33335 7.18179V7.50009H16.6667V7.18179L10 3.43179ZM10 5.00004C10.4603 5.00004 10.8334 5.37314 10.8334 5.83337C10.8334 6.2936 10.4603 6.6667 10 6.6667C9.53977 6.6667 9.16669 6.2936 9.16669 5.83337C9.16669 5.37314 9.53977 5.00004 10 5.00004Z" fill="#043960"/>
</svg>
