<svg width="20" height="20" viewBox="0 0 20 20" fill="none" xmlns="http://www.w3.org/2000/svg">
<path fill-rule="evenodd" clip-rule="evenodd" d="M1.66667 4.16669C1.66667 2.78598 2.78596 1.66669 4.16667 1.66669H15C16.3808 1.66669 17.5 2.78598 17.5 4.16669V15C17.5 16.3808 16.3808 17.5 15 17.5H4.16667C2.78596 17.5 1.66667 16.3808 1.66667 15V4.16669ZM15.8333 4.16669V5.00002C15.8333 5.9205 15.0872 6.66669 14.1667 6.66669C13.2462 6.66669 12.5 5.9205 12.5 5.00002C12.5 4.53979 12.1269 4.16669 11.6667 4.16669C11.2064 4.16669 10.8333 4.53979 10.8333 5.00002V5.41669C10.8333 6.10705 10.2737 6.66669 9.58334 6.66669C8.893 6.66669 8.33334 6.10705 8.33334 5.41669V5.00002C8.33334 4.53979 7.96024 4.16669 7.5 4.16669C7.03977 4.16669 6.66667 4.53979 6.66667 5.00002C6.66667 5.9205 5.92048 6.66669 5.00001 6.66669C4.07953 6.66669 3.33334 5.9205 3.33334 5.00002V4.16669C3.33334 3.70645 3.70644 3.33335 4.16667 3.33335H15C15.4603 3.33335 15.8333 3.70645 15.8333 4.16669ZM14.1667 8.33335C13.233 8.33335 12.3891 7.9495 11.7839 7.33102C11.2492 7.94517 10.4616 8.33335 9.58334 8.33335C8.70509 8.33335 7.91748 7.94517 7.38276 7.33102C6.77763 7.94951 5.93365 8.33335 5.00001 8.33335C4.39286 8.33335 3.82363 8.17103 3.33334 7.88741V15C3.33334 15.4603 3.70644 15.8334 4.16667 15.8334H6.66667V12.5C6.66667 11.1193 7.78596 10 9.16667 10H10C11.3808 10 12.5 11.1193 12.5 12.5V15.8334H15C15.4603 15.8334 15.8333 15.4603 15.8333 15V7.88741C15.3431 8.17103 14.7738 8.33335 14.1667 8.33335ZM10.8333 15.8334V12.5C10.8333 12.0398 10.4603 11.6667 10 11.6667H9.16667C8.70642 11.6667 8.33334 12.0398 8.33334 12.5V15.8334H10.8333Z" fill="#043960"/>
</svg>
