<svg width="20" height="20" viewBox="0 0 20 20" fill="none" xmlns="http://www.w3.org/2000/svg">
<path fill-rule="evenodd" clip-rule="evenodd" d="M9.16667 1.66669C6.86549 1.66669 5.00001 3.53217 5.00001 5.83335C5.00001 8.13454 6.86549 10 9.16667 10C11.4678 10 13.3333 8.13454 13.3333 5.83335C13.3333 3.53217 11.4678 1.66669 9.16667 1.66669ZM6.66667 5.83335C6.66667 4.45265 7.78596 3.33335 9.16667 3.33335C10.5474 3.33335 11.6667 4.45265 11.6667 5.83335C11.6667 7.21406 10.5474 8.33335 9.16667 8.33335C7.78596 8.33335 6.66667 7.21406 6.66667 5.83335ZM3.33334 15.4167C3.33334 15.2672 3.40806 15.0093 3.67783 14.6678C3.94095 14.3346 4.34762 13.9779 4.88669 13.649C5.96421 12.9915 7.481 12.5 9.16667 12.5C9.4795 12.5 9.78701 12.5169 10.0873 12.5489C10.545 12.5975 10.9554 12.2659 11.004 11.8083C11.0527 11.3506 10.7211 10.9402 10.2634 10.8915C9.90584 10.8535 9.53959 10.8334 9.16667 10.8334C7.17045 10.8334 5.3539 11.4114 4.01856 12.2263C3.3512 12.6335 2.78157 13.1136 2.36998 13.6346C1.96505 14.1473 1.66667 14.7609 1.66667 15.4167C1.66667 16.1208 2.00929 16.6759 2.50222 17.0716C2.96937 17.4466 3.58486 17.6947 4.23931 17.868C5.55389 18.2161 7.30918 18.3334 9.16667 18.3334L9.73784 18.3294C10.198 18.3231 10.5658 17.9449 10.5595 17.4846C10.5531 17.0244 10.1748 16.6566 9.71467 16.6629L9.16667 16.6667C7.34226 16.6667 5.76422 16.5477 4.66596 16.2569C4.11397 16.1107 3.75314 15.9385 3.54559 15.7719C3.36381 15.626 3.33334 15.518 3.33334 15.4167ZM15 11.6667C15.4603 11.6667 15.8333 12.0398 15.8333 12.5V14.1667H17.5C17.9603 14.1667 18.3333 14.5398 18.3333 15C18.3333 15.4603 17.9603 15.8334 17.5 15.8334H15.8333V17.5C15.8333 17.9603 15.4603 18.3334 15 18.3334C14.5398 18.3334 14.1667 17.9603 14.1667 17.5V15.8334H12.5C12.0398 15.8334 11.6667 15.4603 11.6667 15C11.6667 14.5398 12.0398 14.1667 12.5 14.1667H14.1667V12.5C14.1667 12.0398 14.5398 11.6667 15 11.6667Z" fill="#043960"/>
</svg>
